<?xml version="1.0" encoding="UTF-8"?>
<svg version="1.1" xmlns="http://www.w3.org/2000/svg" width="512" height="512">
<path d="M0 0 C1.33651809 -0.00418005 2.67303263 -0.00966123 4.00954068 -0.01631981 C7.6579614 -0.0307053 11.3061549 -0.02655148 14.9545877 -0.019153 C18.89880318 -0.01440643 22.84297055 -0.02694431 26.78717041 -0.03717041 C34.50486422 -0.05433478 42.22247652 -0.05520332 49.94018446 -0.04995751 C56.21559528 -0.04591009 62.49098208 -0.04736615 68.76639175 -0.05270576 C69.66078922 -0.05345419 70.55518669 -0.05420261 71.47668711 -0.05497371 C73.293871 -0.05650525 75.11105489 -0.05804359 76.92823876 -0.05958868 C93.95565005 -0.07330523 110.98301535 -0.06788202 128.01042558 -0.05640347 C143.57312451 -0.04647245 159.13570452 -0.05941099 174.6983851 -0.08333766 C190.69522754 -0.10774569 206.69201464 -0.11733231 222.68887532 -0.11068493 C231.66306016 -0.10719644 240.63715358 -0.1094003 249.61132431 -0.12693596 C257.25094886 -0.14167928 264.89041761 -0.14226562 272.53003918 -0.12486505 C276.42425529 -0.11637007 280.31819332 -0.11416839 284.21239471 -0.1295166 C287.78412129 -0.14341902 291.35533301 -0.1385303 294.92703022 -0.11927737 C296.81651732 -0.11377395 298.706031 -0.1277425 300.59546745 -0.14263147 C315.01880552 -0.01914793 325.83243743 4.96258497 336.32791138 14.70018005 C346.43340336 25.37768102 349.0481691 37.25265884 348.91848755 51.54832458 C348.91892563 52.82750259 348.91936371 54.1066806 348.91981506 55.42462158 C348.92066907 58.90132092 348.90314105 62.3777041 348.88209319 65.85433054 C348.86322602 69.49912786 348.8615681 73.14393396 348.85801697 76.78877258 C348.84872578 83.67691442 348.82415208 90.56491189 348.7939685 97.45299041 C348.76033284 105.30069464 348.74391554 113.14840609 348.72888219 120.99616456 C348.69759956 137.12675397 348.64489664 153.25719853 348.57791138 169.38768005 C347.47575287 169.58561661 346.37359436 169.78355316 345.23803711 169.98748779 C343.77951557 170.25390969 342.3210316 170.52053735 340.86257935 170.78733826 C340.13761765 170.91697212 339.41265594 171.04660599 338.66572571 171.18016815 C333.65046749 172.1033549 329.32730009 173.37179484 324.70291138 175.57518005 C318.6946997 178.38768005 318.6946997 178.38768005 316.57791138 178.38768005 C316.57552302 177.72599099 316.57313467 177.06430193 316.57067394 176.38256168 C316.51144842 160.25636503 316.43585027 144.13033579 316.34219646 128.00430393 C316.29729725 120.20575884 316.25786917 112.40725881 316.23147583 104.60862732 C316.20844803 97.80858607 316.17499692 91.00868815 316.12920982 84.20876068 C316.10534177 80.61072593 316.08657111 77.01283255 316.08029747 73.41472054 C316.07308524 69.39061013 316.04259496 65.36698955 316.01028442 61.34300232 C316.01243706 59.56814453 316.01243706 59.56814453 316.01463318 57.75743103 C315.92915735 50.21609455 315.65856934 42.72505951 310.32791138 36.95018005 C303.20636723 32.90384815 296.25709293 33.10083175 288.25567627 33.12698364 C286.39413007 33.12124532 286.39413007 33.12124532 284.49497688 33.11539108 C281.06201577 33.1068726 277.62926941 33.10728907 274.19631457 33.11157167 C270.48933462 33.11404158 266.78237969 33.10502143 263.07540894 33.09753418 C255.81753503 33.08479246 248.55969813 33.08299284 241.30181493 33.08533444 C235.40150153 33.08711838 229.50119936 33.08536634 223.6008873 33.08111 C222.76072442 33.08051481 221.92056154 33.07991962 221.05493917 33.0793064 C219.34807349 33.07809463 217.64120781 33.0768805 215.93434213 33.07566402 C199.93141022 33.06479048 183.92849939 33.06695008 167.9255663 33.07304887 C153.29184894 33.07821767 138.65819814 33.06696322 124.02449395 33.04795065 C108.99166761 33.02856954 93.95887277 33.02031674 78.92603385 33.0240739 C70.48902882 33.02598555 62.05208044 33.02350188 53.6150856 33.00935936 C46.43243193 32.9974411 39.2498698 32.99604564 32.06721486 33.00814953 C28.40430976 33.01403515 24.74157205 33.01514653 21.07867813 33.00314713 C17.10374058 32.99027708 13.12905617 33.00076041 9.15411377 33.01345825 C8.0022559 33.00608397 6.85039803 32.99870968 5.66363537 32.99111193 C-1.79116262 33.04120105 -9.15714883 33.37388948 -14.85958862 38.63768005 C-18.10439253 44.34853493 -18.71775381 50.06122511 -18.70056152 56.51852417 C-18.70635393 57.3085472 -18.71214633 58.09857022 -18.71811426 58.91253334 C-18.73503979 61.54418357 -18.73798431 64.17565764 -18.74093628 66.80735779 C-18.7502396 68.6999962 -18.76040887 70.59263052 -18.77137756 72.48526001 C-18.79864605 77.61277247 -18.81381767 82.74025751 -18.82680559 87.86782336 C-18.84244988 93.23035495 -18.86923599 98.59283064 -18.89483643 103.95532227 C-18.94160118 114.10528433 -18.97835647 124.25525693 -19.0115093 134.40527159 C-19.04974693 145.96268513 -19.09915282 157.5200425 -19.14949346 169.07740867 C-19.25277907 192.84745749 -19.34205047 216.61754239 -19.42208862 240.38768005 C-18.25190689 240.37435638 -17.08172516 240.36103271 -15.87608337 240.3473053 C-4.82718752 240.22546901 6.22157134 240.13563306 17.27098751 240.07680702 C22.95113648 240.04554656 28.63074146 240.00316945 34.31057739 239.93504333 C39.7960142 239.86966359 45.28092906 239.83393428 50.76672554 239.8184166 C52.85547663 239.80736372 54.94420041 239.78577968 57.0327282 239.75329971 C59.96759765 239.70948918 62.90033386 239.70375624 65.83547974 239.70652771 C66.69144241 239.68495605 67.54740509 239.6633844 68.42930603 239.64115906 C76.67696582 239.72496488 81.89689312 243.8969802 87.82791138 249.26268005 C105.42391081 264.71479909 130.6570389 272.56403158 153.88650513 271.16893005 C175.73072917 269.43552316 194.59131339 261.04752592 211.57791138 247.38768005 C213.11451981 246.21435924 214.65556507 245.04680327 216.20291138 243.88768005 C216.813927 243.42361755 217.42494263 242.95955505 218.05447388 242.48143005 C221.44209794 240.0492897 223.98539522 240.27206042 228.11697388 240.2900238 C229.418927 240.29324646 230.72088013 240.29646912 232.06228638 240.29978943 C233.44249537 240.30814539 234.8227037 240.31661035 236.20291138 240.32518005 C237.59093063 240.33019504 238.9789516 240.33475795 240.36697388 240.33885193 C243.7706627 240.35067029 247.17426577 240.36714572 250.57791138 240.38768005 C246.15376397 245.68948938 241.48138214 250.60639713 236.57229614 255.45921326 C235.79262482 256.23421173 235.01295349 257.00921021 234.20965576 257.80769348 C232.52636689 259.48052914 230.84198478 261.15226531 229.15661812 262.82300758 C226.4837005 265.47378338 223.81487077 268.12861084 221.14723206 270.78469849 C213.56545271 278.3329987 205.979736 285.87729238 198.3833313 293.41087341 C193.72712579 298.02866505 189.07899404 302.65449857 184.4351635 307.28473473 C182.67141315 309.04046682 180.90489721 310.79342547 179.13549995 312.54346657 C176.65427918 314.998013 174.18268262 317.46189403 171.71292114 319.92796326 C170.99010452 320.638423 170.2672879 321.34888275 169.52256775 322.08087158 C162.78095275 328.84894769 156.63975954 336.07166807 154.20291138 345.45018005 C152.62097358 351.34461785 152.62097358 351.34461785 151.57791138 352.38768005 C149.49597221 352.49332089 147.4103946 352.52736673 145.32579041 352.53485107 C144.66511131 352.53852776 144.00443222 352.54220445 143.32373255 352.54599255 C141.09310283 352.55707147 138.86251963 352.5608805 136.63186646 352.56468201 C135.03868968 352.57094409 133.44551438 352.57759066 131.8523407 352.58459473 C126.60071845 352.60568899 121.34909576 352.61601029 116.09744263 352.6259613 C114.28840304 352.63000854 112.4793636 352.63412545 110.67032433 352.63831139 C102.161498 352.65738426 93.65268041 352.6716041 85.1438368 352.67992336 C75.33930652 352.68966798 65.53500368 352.71590569 55.73055345 352.75642425 C48.14566198 352.78668655 40.56083524 352.80140226 32.97588462 352.80470437 C28.45038668 352.80704574 23.9251311 352.81588451 19.39969826 352.84116554 C15.13066936 352.86462499 10.86203917 352.86860857 6.59296227 352.85840416 C5.03626039 352.8579128 3.47953771 352.86411355 1.92289734 352.87796021 C-11.17052689 352.98778963 -22.94219071 350.77293547 -34.67208862 344.63768005 C-35.34119263 344.29333923 -36.01029663 343.94899841 -36.69967651 343.59422302 C-55.46894177 333.63317215 -66.80033768 317.12603451 -73.51193237 297.4462738 C-75.38981109 291.13563418 -75.66881689 285.24666019 -75.73458862 278.70018005 C-75.77809448 277.28575623 -75.77809448 277.28575623 -75.82247925 275.84275818 C-75.92032901 264.89111183 -72.30214779 257.4507371 -64.80490112 249.5947113 C-60.86504977 245.94550472 -56.9576575 242.38768005 -51.42208862 242.38768005 C-51.42577579 241.34738018 -51.42946297 240.30708031 -51.43326187 239.2352562 C-51.52215267 213.89504999 -51.58783557 188.55486407 -51.62933731 163.21453476 C-51.6499419 150.96001893 -51.67802239 138.70560624 -51.72384644 126.45115662 C-51.76377847 115.76725864 -51.78953671 105.08343538 -51.7984426 94.39946485 C-51.80364653 88.74501877 -51.81583401 83.09078642 -51.84500885 77.436409 C-51.87227845 72.10781576 -51.8805103 66.77952309 -51.87451935 61.4508667 C-51.87561443 59.50147108 -51.88349912 57.5520648 -51.89891052 55.6027298 C-52.02908332 38.27922524 -49.24708254 25.71983741 -37.10958862 12.63768005 C-26.34726412 2.45190865 -14.39514088 -0.07071992 0 0 Z " fill="#8408F9" transform="translate(91.42208862304688,39.61231994628906)"/>
<path d="M0 0 C9.58294154 6.57652851 16.55644025 18.08727245 19.609375 29.22265625 C21.24926075 40.88224394 21.16093996 53.2723858 16 64 C15.61070312 64.82113281 15.22140625 65.64226562 14.8203125 66.48828125 C12.07659832 71.57795222 8.53374232 75.78368575 4.60055542 79.98802185 C4.07484731 80.55329257 3.54913919 81.1185633 3.00750053 81.70096344 C-2.89928043 88.01652534 -8.99345505 94.1416713 -15.10888672 100.25415039 C-16.37203703 101.52030254 -17.63498561 102.78665596 -18.89775085 104.05319214 C-22.28543672 107.44960735 -25.67625907 110.84287342 -29.06799078 114.23524785 C-31.19134446 116.35931714 -33.31398256 118.48409888 -35.43637466 120.60912895 C-42.8518809 128.03384426 -50.26992199 135.45601581 -57.69042969 142.87573242 C-64.5934051 149.77810474 -71.49075541 156.68606338 -78.38555515 163.59660155 C-84.32622134 169.55034198 -90.2707352 175.50022204 -96.21826184 181.44710916 C-99.76188141 184.99047419 -103.30394181 188.53536367 -106.84212875 192.08415413 C-110.16203259 195.41373963 -113.48670425 198.7384893 -116.81508827 202.05959702 C-118.03342126 203.27688503 -119.25005545 204.49587609 -120.46483803 205.71670723 C-122.1259212 207.38552378 -123.7930874 209.04802306 -125.46188354 210.7091217 C-126.39205732 211.63984025 -127.3222311 212.5705588 -128.28059196 213.52948093 C-133.47667455 218.25000133 -138.01264623 220.62161677 -144.875 221.8125 C-146.10295288 222.04018066 -146.10295288 222.04018066 -147.35571289 222.27246094 C-149.33469539 222.63526 -151.31507587 222.99047174 -153.29638672 223.34033203 C-156.91876813 223.98553141 -160.53613382 224.65406803 -164.15344238 225.32695007 C-167.68656153 225.98133505 -171.22182238 226.62358877 -174.75762939 227.26327515 C-176.52658011 227.58455643 -178.29494969 227.90905611 -180.06268311 228.23696899 C-205.68311311 232.9691063 -205.68311311 232.9691063 -213.5625 229.375 C-219.804204 223.29333969 -219.804204 223.29333969 -220.23188782 218.28392029 C-220.23137751 210.15176093 -219.35957526 202.46753664 -217.91796875 194.47265625 C-217.70312332 193.24010605 -217.48827789 192.00755585 -217.266922 190.73765564 C-216.81410882 188.15610368 -216.35584632 185.57550203 -215.89233398 182.99584961 C-215.42037542 180.36206909 -214.9539948 177.72818814 -214.4987793 175.09155273 C-213.83634224 171.25835488 -213.16070295 167.42773178 -212.48046875 163.59765625 C-212.27721481 162.42260025 -212.07396088 161.24754425 -211.86454773 160.03688049 C-211.6645668 158.93811081 -211.46458588 157.83934113 -211.25854492 156.70727539 C-211.08755783 155.74721085 -210.91657074 154.7871463 -210.74040222 153.79798889 C-207.32531096 140.89231798 -194.39241169 131.23920371 -185.21923828 122.05810547 C-183.95479854 120.78902602 -182.69055237 119.51975369 -181.42648315 118.25030518 C-178.01979751 114.83061189 -174.6098816 111.41415866 -171.19891977 107.99873114 C-169.06242468 105.8592888 -166.92651105 103.71926759 -164.79076767 101.57907486 C-158.0916312 94.86629951 -151.39052155 88.15550335 -144.68650067 81.44760597 C-136.97735461 73.73397582 -129.27480048 66.0138422 -121.57789433 58.28799903 C-115.60499699 52.29343457 -109.62629805 46.30469653 -103.6432246 40.32028878 C-100.07965528 36.75567585 -96.51851297 33.18871948 -92.96341324 29.61565781 C-89.61947214 26.25514676 -86.26833049 22.90198195 -82.91173172 19.5541153 C-81.68817326 18.33132221 -80.4671289 17.10600688 -79.24893951 15.87786484 C-61.88336278 -1.62113305 -61.88336278 -1.62113305 -50.5625 -5.9375 C-49.11037109 -6.50791016 -49.11037109 -6.50791016 -47.62890625 -7.08984375 C-31.27290435 -12.75247145 -14.27705942 -8.80154693 0 0 Z " fill="#B41AEF" transform="translate(476,241)"/>
</svg>
