<?xml version="1.0" encoding="UTF-8"?>
<svg version="1.1" xmlns="http://www.w3.org/2000/svg" width="512" height="512">
<path d="M0 0 C1.13179688 -0.03351563 2.26359375 -0.06703125 3.4296875 -0.1015625 C12.81289275 1.74333832 19.65103771 9.72125825 26.1398468 16.25889587 C27.11758559 17.23317172 28.09597634 18.20679365 29.07495564 19.17982298 C31.74441641 21.83683205 34.40452738 24.50302838 37.06309998 27.17092597 C39.93904431 30.05368428 42.82364019 32.92776395 45.70710754 35.80299377 C51.34644568 41.42901841 56.97767553 47.06309125 62.60600386 52.70012801 C67.18071598 57.28162431 71.75835883 61.86017308 76.33809471 66.43664742 C76.99070566 67.08879867 77.64331662 67.74094992 78.31570366 68.41286333 C79.64159223 69.73779271 80.96748753 71.06271536 82.29338946 72.38763136 C94.71425524 84.79995058 107.1259231 97.22143444 119.53444704 109.64609004 C130.1783255 120.30337731 140.83005375 130.95276576 151.48754883 141.59643555 C163.87183894 153.96466777 176.25124366 166.33775627 188.62290162 178.71862513 C189.94225617 180.0389353 191.26161698 181.35923923 192.58098412 182.67953682 C193.2300964 183.32911193 193.87920869 183.97868704 194.54799104 184.64794625 C199.11953945 189.22208344 203.69455668 193.79273331 208.27092934 198.36204338 C213.84737498 203.9300718 219.41843663 209.50342082 224.98268399 215.08364027 C227.82094487 217.92977982 230.6615411 220.77347837 233.50870514 223.61071396 C236.11613646 226.20919009 238.71651108 228.81451958 241.31148913 231.4254306 C242.69392775 232.8127946 244.08371934 234.19281981 245.47377855 235.57254833 C251.7610609 241.9194877 256.6861996 247.12134103 256.75 256.5 C256.53775844 263.3795541 254.94899741 267.71466706 250.125 272.625 C244.75619944 277.21085048 239.54082392 277.33420019 232.5859375 277.15625 C226.42173854 276.21005242 222.42817239 272.92817239 218.125 268.625 C218.12280016 270.38424553 218.12280016 270.38424553 218.12055588 272.17903137 C218.0848393 300.03149175 218.02857709 327.88385207 217.94707905 355.73621726 C217.93706182 359.16577853 217.92721765 362.59534027 217.91748047 366.02490234 C217.91456841 367.04903079 217.91456841 367.04903079 217.91159752 368.09384871 C217.88059241 379.14296631 217.86360104 390.19206316 217.85180578 401.24121606 C217.83938647 412.58212214 217.81157089 423.9229003 217.77038693 435.26374531 C217.74774654 441.63229843 217.73209088 448.00069628 217.73311615 454.36929321 C217.73386122 460.36440896 217.71597138 466.35918113 217.68383217 472.35420799 C217.67531817 474.55358501 217.67359338 476.7530005 217.67919731 478.95238686 C217.68583589 481.95840522 217.66791911 484.96333 217.64398193 487.96923828 C217.65562256 489.27082492 217.65562256 489.27082492 217.66749835 490.59870625 C217.57292399 497.32048423 215.79708783 502.5966338 211.30859375 507.68359375 C210.73238281 508.13863281 210.15617187 508.59367187 209.5625 509.0625 C208.98371094 509.53558594 208.40492188 510.00867188 207.80859375 510.49609375 C204.13595288 512.95872301 200.71762937 512.75208087 196.43196392 512.75642776 C195.40124842 512.75950672 195.40124842 512.75950672 194.34971038 512.76264787 C192.0302162 512.76833543 189.71078108 512.76685846 187.39128113 512.76544189 C185.71829847 512.76802452 184.04531643 512.77103739 182.37233526 512.7744453 C177.76165493 512.78253053 173.15099016 512.78430571 168.54030359 512.78504276 C163.57291073 512.78689066 158.605526 512.79443663 153.63813782 512.80117798 C142.7704917 512.81477238 131.90284927 512.82078767 121.03519607 512.82518864 C114.25283145 512.82794904 107.47046827 512.83218601 100.68810463 512.83669281 C81.91940367 512.84888665 63.15070385 512.85918591 44.38199902 512.8625679 C43.18026358 512.86278747 41.97852815 512.86300703 40.74037649 512.86323325 C39.53572466 512.86345153 38.33107284 512.86366981 37.08991641 512.8638947 C34.64873008 512.86433817 32.20754375 512.86478473 29.76635742 512.86523438 C28.55543819 512.8654558 27.34451896 512.86567723 26.09690521 512.86590537 C6.46875786 512.86985471 -13.15935239 512.88731236 -32.7874854 512.9105939 C-52.92669183 512.93428935 -73.06587963 512.94676892 -93.20510024 512.94793582 C-104.51767762 512.94885357 -115.83020667 512.954631 -127.14277077 512.97275543 C-136.77435381 512.98813202 -146.40587358 512.99329132 -156.03746656 512.98501733 C-160.95360028 512.98110223 -165.86960649 512.98208226 -170.78572464 512.99607468 C-175.28437182 513.00876205 -179.78279501 513.00766174 -184.28144165 512.99548396 C-185.910656 512.99351798 -187.53988593 512.99664674 -189.16907833 513.00532833 C-191.38113904 513.01637148 -193.59240229 513.0089682 -195.8044405 512.9969368 C-197.03386759 512.99753389 -198.26329468 512.99813097 -199.52997714 512.99874616 C-204.8160475 512.40812284 -208.75087969 510.34714608 -212.125 506.25 C-212.60453125 505.68539063 -213.0840625 505.12078125 -213.578125 504.5390625 C-217.13987996 499.28225547 -217.16703169 494.47233312 -217.1534729 488.33000183 C-217.1592653 487.39059622 -217.1650577 486.4511906 -217.17102563 485.48331815 C-217.18803693 482.33414025 -217.19090314 479.18510881 -217.19384766 476.03588867 C-217.20314504 473.77901856 -217.21331343 471.52215189 -217.22428894 469.26528931 C-217.25162432 463.1356229 -217.26674889 457.00597953 -217.27971697 450.87626815 C-217.29533199 444.47138431 -217.32212741 438.06654761 -217.3477478 431.66169739 C-217.38924308 420.91062582 -217.42382928 410.1595575 -217.453125 399.40844727 C-217.48331658 388.33551177 -217.51766964 377.26260205 -217.55761719 366.18969727 C-217.56007874 365.5069889 -217.56254028 364.82428053 -217.56507643 364.12088402 C-217.57745115 360.69588463 -217.58990766 357.27088554 -217.60240483 353.84588659 C-217.70595056 325.43896046 -217.79501389 297.03200155 -217.875 268.625 C-218.33390625 269.03492188 -218.7928125 269.44484375 -219.265625 269.8671875 C-219.87921875 270.40601563 -220.4928125 270.94484375 -221.125 271.5 C-221.72828125 272.03367187 -222.3315625 272.56734375 -222.953125 273.1171875 C-228.13155601 277.17994028 -232.86836936 277.16705199 -239.31640625 277.06640625 C-246.22073688 276.20999641 -250.04593566 272.76634362 -254.4375 267.625 C-257.04667399 262.16393816 -257.01803081 255.43847929 -255.875 249.625 C-251.96118125 242.21688294 -246.13064787 236.45570891 -240.24110413 230.6101532 C-239.26682828 229.63241441 -238.29320635 228.65402366 -237.32017702 227.67504436 C-234.66316795 225.00558359 -231.99697162 222.34547262 -229.32907403 219.68690002 C-226.44631572 216.81095569 -223.57223605 213.92635981 -220.69700623 211.04289246 C-215.07098159 205.40355432 -209.43690875 199.77232447 -203.79987199 194.14399614 C-199.21837569 189.56928402 -194.63982692 184.99164117 -190.06335258 180.41190529 C-189.41120133 179.75929434 -188.75905008 179.10668338 -188.08713667 178.43429634 C-186.76220729 177.10840777 -185.43728464 175.78251247 -184.11236864 174.45661054 C-171.70004942 162.03574476 -159.27856556 149.6240769 -146.85390996 137.21555296 C-136.19662269 126.5716745 -125.54723424 115.91994625 -114.90356445 105.26245117 C-102.53533223 92.87816106 -90.16224373 80.49875634 -77.78137487 68.12709838 C-76.4610647 66.80774383 -75.14076077 65.48838302 -73.82046318 64.16901588 C-73.17088807 63.5199036 -72.52131296 62.87079131 -71.85205375 62.20200896 C-67.27791656 57.63046055 -62.70726669 53.05544332 -58.13795662 48.47907066 C-52.5699282 42.90262502 -46.99657918 37.33156337 -41.41635973 31.76731601 C-38.57022018 28.92905513 -35.72652163 26.0884589 -32.88928604 23.24129486 C-30.29080991 20.63386354 -27.68548042 18.03348892 -25.0745694 15.43851087 C-23.6872054 14.05607225 -22.30718019 12.66628066 -20.92745167 11.27622145 C-14.5805123 4.9889391 -9.37865897 0.0638004 0 0 Z M-7.75918579 55.60658264 C-8.47554728 56.14661073 -9.19190878 56.68663881 -9.92997819 57.24303138 C-36.57665124 77.42949353 -62.10043554 98.88516021 -86.92004079 121.26362246 C-88.4951428 122.68312263 -90.07247093 124.1001187 -91.64996576 125.51695871 C-143.87190251 172.49778205 -183.31733323 217.49178945 -187.37582481 290.1012769 C-188.56604449 312.76030737 -188.16091599 335.30227141 -186.92755401 357.94943875 C-186.81214041 360.06910409 -186.69980456 362.18891726 -186.58777714 364.30876398 C-184.64678036 400.62770461 -180.90398856 436.59445226 -175.875 472.625 C-150.465 472.625 -125.055 472.625 -98.875 472.625 C-98.84921875 462.395 -98.8234375 452.165 -98.796875 441.625 C-98.77170895 435.14451209 -98.74554083 428.66405391 -98.71484375 422.18359375 C-98.66630542 411.89730026 -98.62186111 401.61110566 -98.60400391 391.32470703 C-98.59097917 383.83284005 -98.56399363 376.34117423 -98.52038693 368.84942055 C-98.49779045 364.88417355 -98.48208822 360.91917451 -98.48311615 356.95385742 C-98.48386385 353.21743107 -98.46586976 349.48155244 -98.43383217 345.74526787 C-98.42132336 343.72865981 -98.42838865 341.7119597 -98.43614197 339.69532776 C-98.35416901 332.54125169 -97.78782989 327.68413537 -93.875 321.625 C-91.875 319.78515625 -91.875 319.78515625 -89.875 318.6875 C-89.215 318.30722656 -88.555 317.92695313 -87.875 317.53515625 C-83.6575337 315.61587959 -79.85046068 315.49436537 -75.23519897 315.47782898 C-74.56913435 315.47415229 -73.90306972 315.4704756 -73.21682131 315.4666875 C-70.9861738 315.45567952 -68.75557292 315.45181172 -66.52490234 315.44799805 C-64.92479302 315.44173113 -63.32468515 315.43508412 -61.72457886 315.42808533 C-56.470042 315.40706658 -51.21550494 315.39668375 -45.9609375 315.38671875 C-44.14963389 315.38267013 -42.33833043 315.37855317 -40.52702713 315.37436867 C-32.01501572 315.35532038 -23.50301295 315.3410896 -14.99098432 315.3327567 C-5.17795459 315.32299069 4.63484918 315.29668629 14.44779932 315.25625581 C22.04033204 315.22605159 29.63280014 315.21128367 37.22539175 315.20797569 C41.75630626 315.20562977 46.28697928 315.19672946 50.81782913 315.17151451 C55.08442328 315.1481538 59.35061833 315.14403249 63.61725998 315.15427589 C65.17725709 315.15476946 66.73727439 315.14850233 68.29721069 315.13471985 C76.68515308 315.06479823 84.78382251 315.01147955 92.125 319.625 C96.75013033 324.33828567 98.24352325 328.94429015 98.28321838 335.41459656 C98.2930072 336.62194458 98.30279602 337.8292926 98.31288147 339.07322693 C98.3187856 340.41299399 98.32459605 341.75276146 98.33032227 343.0925293 C98.33990135 344.5018238 98.34991145 345.91111544 98.36032104 347.32040405 C98.38737292 351.14859835 98.40838095 354.97680498 98.42832303 358.80504203 C98.45018083 362.80493149 98.47757053 366.80478293 98.50437927 370.80464172 C98.55430894 378.37999642 98.59924676 385.95537222 98.64240164 393.53076822 C98.70100018 403.76666192 98.76728853 414.00250562 98.83315182 424.23835468 C98.9367308 440.36720277 99.03001709 456.4960937 99.125 472.625 C124.535 472.625 149.945 472.625 176.125 472.625 C181.25313127 435.88413722 184.99296619 399.21732913 186.9500705 362.18388492 C187.06214057 360.069282 187.17725887 357.95485824 187.29241085 355.8404212 C191.0492605 285.71827135 187.08910786 226.06344184 138.6656175 171.85356733 C123.47095864 154.95848913 107.2241578 139.28050829 90.32635051 124.10360318 C88.7452646 122.68324599 87.16645659 121.26039079 85.58796453 119.837152 C60.61173681 97.34175978 34.85723127 75.84594325 8.00918579 55.60658264 C7.33409208 55.09418569 6.65899837 54.58178873 5.96344727 54.0538646 C-0.38855717 49.31962082 -1.88067918 51.14478892 -7.75918579 55.60658264 Z M-57.875 355.625 C-57.875 394.235 -57.875 432.845 -57.875 472.625 C-19.595 472.625 18.685 472.625 58.125 472.625 C58.125 434.015 58.125 395.405 58.125 355.625 C19.845 355.625 -18.435 355.625 -57.875 355.625 Z " fill="#B5ABFD" transform="translate(255.875,-0.625)"/>
</svg>
