<?xml version="1.0" encoding="UTF-8"?>
<svg version="1.1" xmlns="http://www.w3.org/2000/svg" width="512" height="512">
<path d="M0 0 C2.4375 1.4375 2.4375 1.4375 4 4 C4.7301936 12.10680854 2.56001905 18.83822319 0.0625 26.5 C-0.35096984 27.79089273 -0.76404926 29.08191056 -1.17675781 30.37304688 C-2.42630486 34.25715058 -3.70989294 38.12917585 -5 42 C-5.36303223 43.09570312 -5.72606445 44.19140625 -6.10009766 45.3203125 C-17.22453227 78.52199113 -31.51029595 112.39306493 -56 138 C-56.96679688 139.06154297 -56.96679688 139.06154297 -57.953125 140.14453125 C-67.76784045 150.57765356 -79.88262263 156.91023599 -94.31054688 157.42016602 C-112.67834763 157.5655846 -128.06704833 151.43706516 -141.28369141 138.78442383 C-148.4267845 131.72192514 -155.18036396 124.28271271 -161.75 116.6875 C-173.61468926 103.11155748 -187.6889835 93.13071671 -206.2265625 91.76171875 C-227.24982715 91.30258998 -242.41981176 103.12414831 -257 117 C-269.609917 129.62760272 -279.89105959 144.3610555 -290 159 C-290.68964844 159.99257812 -291.37929688 160.98515625 -292.08984375 162.0078125 C-294.94712018 165.69304097 -294.94712018 165.69304097 -296 170 C-295.27296875 170.27972656 -294.5459375 170.55945313 -293.796875 170.84765625 C-270.72441264 180.04706111 -255.02953633 196.65648839 -238 214 C-237.63350342 213.54262451 -237.26700684 213.08524902 -236.8894043 212.61401367 C-220.76100067 192.56105699 -202.9682275 172.26567391 -176 168.3125 C-174.66835868 168.18856507 -173.33470084 168.08486537 -172 168 C-170.95005859 167.92072266 -170.95005859 167.92072266 -169.87890625 167.83984375 C-144.89629595 166.87087236 -122.30071843 178.93705786 -104 195 C-99.85945514 198.86239793 -95.90534789 202.90153051 -92 207 C-86.825928 205.30987227 -82.62755717 202.24803966 -78.1875 199.1875 C-77.34872314 198.6114502 -76.50994629 198.03540039 -75.64575195 197.44189453 C-68.06781681 192.16935333 -60.94855555 186.43629629 -53.86132812 180.53027344 C-50.93497696 178.12440131 -47.93401949 175.81735343 -44.9375 173.5 C-33.9998031 164.97958548 -23.66446052 155.75608738 -13.5859375 146.2421875 C-7.48116478 140.94892535 -7.48116478 140.94892535 -2.375 141.125 C1 142 1 142 2.9375 143.0625 C4.69911186 146.27485104 4.60290921 149.48649459 4 153 C1.5912539 157.11494126 -2.14071481 159.98245886 -5.73828125 163.0546875 C-8.13783821 165.11855514 -10.47465423 167.24157636 -12.8125 169.375 C-17.07880589 173.22050182 -21.451693 176.89731266 -25.91796875 180.5078125 C-28.13919369 182.30393609 -30.34900377 184.11008536 -32.55078125 185.9296875 C-73.90600374 220 -73.90600374 220 -80 220 C-76.62668165 225.45001747 -73.21070831 230.78362939 -69.3125 235.875 C-35.58533804 281.75433785 -15.85280132 340.9757691 0.25 395.125 C0.44517212 395.76898743 0.64034424 396.41297485 0.84143066 397.07647705 C2.98971477 404.20650633 4.65365296 410.53297619 4 418 C2.4375 420.5625 2.4375 420.5625 0 422 C-3.67950851 422.52564407 -5.9175302 422.74940217 -9.03125 420.59375 C-11.95039607 416.74789089 -12.78989852 412.62830255 -14 408 C-29.52185724 351.98103781 -50.08604858 292.63944059 -84 245 C-84.43006348 244.39236816 -84.86012695 243.78473633 -85.30322266 243.15869141 C-88.18257725 239.09154045 -91.08325548 235.04040839 -94 231 C-94.82564453 231.45826172 -94.82564453 231.45826172 -95.66796875 231.92578125 C-98.11457332 233.27236206 -100.56916624 234.60346529 -103.02685547 235.9296875 C-104.42440113 236.68777215 -105.81897406 237.45134892 -107.21142578 238.21875 C-137.08947193 254.65259245 -168.63846832 267.54712822 -203 259 C-211.89726549 256.40114238 -219.2964226 252.23593236 -226.90625 247.0859375 C-229.56120199 245.29585623 -232.24814044 243.63398943 -235 242 C-241.68391674 253.00982831 -247.7870428 264.18506341 -253.46874619 275.74256325 C-254.78545557 278.42001432 -256.11073063 281.09308317 -257.4380188 283.76530457 C-260.73091979 290.39849245 -264.01204936 297.03747639 -267.28930664 303.67840576 C-270.07166385 309.31644785 -272.86078405 314.95103851 -275.65921402 320.58112144 C-276.94378967 323.17192001 -278.21875747 325.76728462 -279.49337769 328.36299133 C-306.62865038 383.20687355 -306.62865038 383.20687355 -331.13671875 392.83984375 C-342.56106377 396.07075833 -354.65035227 393.15479229 -365 388 C-374.42243872 382.48643324 -383.53380812 374.8371289 -390 366 C-390 365.34 -390 364.68 -390 364 C-390.66 364 -391.32 364 -392 364 C-392.17631958 364.61147888 -392.35263916 365.22295776 -392.53430176 365.85296631 C-394.28974832 371.83564837 -396.27034762 377.68257159 -398.46875 383.515625 C-398.79033081 384.37508728 -399.11191162 385.23454956 -399.4432373 386.12005615 C-400.11728238 387.91885924 -400.79295825 389.71705203 -401.47021484 391.51464844 C-402.50200917 394.25533682 -403.52671264 396.99860436 -404.55078125 399.7421875 C-405.21051567 401.50015836 -405.87065776 403.2579763 -406.53125 405.015625 C-406.83446167 405.82823792 -407.13767334 406.64085083 -407.45007324 407.47808838 C-411.68847092 418.68847092 -411.68847092 418.68847092 -415 422 C-421.9273743 422.67039106 -421.9273743 422.67039106 -425.5 420.4375 C-427.56175587 417.08714671 -427.25305736 414.90977373 -427 411 C-426.271081 408.38493978 -425.49489261 405.95321777 -424.54296875 403.42578125 C-424.28359024 402.7122348 -424.02421173 401.99868835 -423.75697327 401.26351929 C-423.19931814 399.73544618 -422.63641728 398.20927892 -422.06872559 396.68490601 C-421.17729569 394.28502829 -420.30628313 391.87848118 -419.43847656 389.4699707 C-416.66999999 381.84431995 -413.78214366 374.32409727 -410.44140625 366.9296875 C-404.25552042 354.89248382 -404.25552042 354.89248382 -403.87890625 341.94140625 C-405.39094898 338.16759261 -407.40162693 335.11169728 -410 332 C-410.433125 333.11375 -410.86625 334.2275 -411.3125 335.375 C-413 339 -413 339 -416 341 C-420.03621805 341.61420709 -421.52111041 341.34355123 -424.875 338.9375 C-427.4299891 335.4056033 -427.44867312 333.16279487 -427 329 C-426.11265964 324.32034675 -424.92634025 319.71457918 -423.77734375 315.09375 C-421.44976031 305.4110029 -422.10901768 298.70313637 -425.22265625 289.40429688 C-426.81245775 284.4032356 -427.36293429 280.25687643 -427 275 C-425.5 272.5 -425.5 272.5 -423 271 C-418.9998308 270.28685508 -416.01152719 270.39308369 -412.5 272.5 C-412.005 272.995 -411.51 273.49 -411 274 C-410.76410156 272.75992187 -410.52820313 271.51984375 -410.28515625 270.2421875 C-408.95599714 264.28597317 -406.73798604 258.76404408 -404.4375 253.125 C-403.99204834 252.02728271 -403.54659668 250.92956543 -403.08764648 249.79858398 C-390.84845502 219.95266771 -373.97069363 184.07322595 -342.54296875 170.5078125 C-336.34982288 168.2121333 -331.42065437 166.84517185 -324.80395508 167.17260742 C-318.65494475 167.43853583 -318.65494475 167.43853583 -313.38964844 164.53173828 C-310.12838694 160.4386095 -307.70124963 155.86647789 -305.25146484 151.25830078 C-303.39252997 147.90380457 -301.20523498 144.83711677 -298.9375 141.75 C-298.5262085 141.1818457 -298.11491699 140.61369141 -297.69116211 140.02832031 C-296.46896122 138.34601659 -295.23676871 136.67161659 -294 135 C-293.60490234 134.46455566 -293.20980469 133.92911133 -292.80273438 133.37744141 C-285.98828022 124.19577303 -278.64065918 115.50319113 -271 107 C-270.26394531 106.17757812 -269.52789062 105.35515625 -268.76953125 104.5078125 C-254.94045844 89.90302768 -235.71797265 75.73863301 -214.9296875 74.69921875 C-213.57825675 74.67994789 -212.22652258 74.67640217 -210.875 74.6875 C-210.14708252 74.69241455 -209.41916504 74.6973291 -208.66918945 74.70239258 C-183.51313197 75.23437731 -165.80698521 87.35094566 -148.89453125 104.83203125 C-145.00191758 108.94219247 -141.40724745 113.20138302 -137.8984375 117.64453125 C-128.95327899 128.74315385 -117.35417485 137.68690255 -103 140 C-90.915209 140.96614974 -82.46652876 138.64925773 -73.14453125 130.89453125 C-72.43683594 130.26933594 -71.72914063 129.64414063 -71 129 C-70.34386719 128.42636719 -69.68773437 127.85273438 -69.01171875 127.26171875 C-37.8731087 98.11997347 -21.03143296 45.50876814 -11.92163086 5.29492188 C-9.70345113 -0.22849256 -5.47034237 -0.6837928 0 0 Z M-354.5625 199.125 C-364.33767738 209.31836679 -371.52327596 221.53800322 -378 234 C-378.59530518 235.14154541 -378.59530518 235.14154541 -379.20263672 236.30615234 C-386.93721258 251.34270781 -392.60682965 266.99735503 -398 283 C-398.30373535 283.88816406 -398.6074707 284.77632813 -398.92041016 285.69140625 C-402.86825683 297.28746932 -404.12517103 304.5530407 -399 315.9375 C-398.6184375 316.81212891 -398.236875 317.68675781 -397.84375 318.58789062 C-396.90707909 320.73052532 -395.959055 322.86731421 -395 325 C-394.34 325 -393.68 325 -393 325 C-392.68474365 324.26402588 -392.3694873 323.52805176 -392.04467773 322.76977539 C-379.06125878 292.51084042 -365.503178 262.56218189 -351 233 C-350.4834082 231.93958496 -349.96681641 230.87916992 -349.43457031 229.78662109 C-343.3772241 217.3626422 -337.00983867 205.1926651 -330.09936523 193.21923828 C-329.57802002 192.31544434 -329.0566748 191.41165039 -328.51953125 190.48046875 C-327.82500854 189.28780396 -327.82500854 189.28780396 -327.11645508 188.07104492 C-325.87390951 185.90808184 -325.87390951 185.90808184 -325 183 C-336.60925514 183 -346.56561312 191.57785017 -354.5625 199.125 Z M-307 184 C-329.74330094 223.38175672 -349.86938439 263.90395687 -367.96325684 305.61401367 C-369.03690959 308.08494464 -370.11630195 310.55331611 -371.19628906 313.02148438 C-373.01536875 317.18533032 -374.81341992 321.35771166 -376.59667969 325.53701782 C-377.27746325 327.12621992 -377.96391503 328.71300684 -378.65625 330.29721069 C-379.61332128 332.49212492 -380.5476235 334.69540484 -381.4765625 336.90234375 C-381.90795029 337.87327972 -381.90795029 337.87327972 -382.34805298 338.86383057 C-383.59914275 341.90097207 -384.10952667 343.58985456 -383.25024414 346.80761719 C-380.92677791 350.88196335 -377.96871202 354.38301821 -375 358 C-374.45085937 358.69738281 -373.90171875 359.39476562 -373.3359375 360.11328125 C-365.94833456 369.12895782 -355.6774196 376.08742007 -344.0625 378.0625 C-336.92046263 378.48197051 -331.9017712 375.36222311 -326.5 370.96484375 C-314.40107427 359.64100545 -306.71715283 344.45066263 -299 330 C-298.55994629 329.18160645 -298.11989258 328.36321289 -297.66650391 327.52001953 C-291.02062701 315.12404536 -284.79852861 302.54009652 -278.6875 289.875 C-273.2264751 278.56071089 -267.68949209 267.29453363 -261.9375 256.125 C-261.35508545 254.98659668 -260.7726709 253.84819336 -260.17260742 252.67529297 C-256.12809007 244.87767166 -251.69141898 237.42079209 -247 230 C-261.31227837 209.36791985 -282.14355918 189.91066109 -307 184 Z M-214 210 C-220.7881727 217.99282457 -220.7881727 217.99282457 -226 227 C-212.33178903 239.35395991 -195.54960013 246.92106628 -176.859375 246.28515625 C-150.59178285 243.66557397 -127.299053 231.23488248 -105 218 C-119.50107822 200.69562536 -139.89084344 186.13973672 -163 184 C-183.77754023 182.56706619 -200.79482586 195.10959411 -214 210 Z " fill="#F94558" transform="translate(508,25)"/>
<path d="M0 0 C0.79148438 -0.02578125 1.58296875 -0.0515625 2.3984375 -0.078125 C5.15214035 0.32768384 5.95771658 1.06105121 7.625 3.25 C8.79916996 6.77250989 8.76161836 9.93623127 8.74804783 13.60010815 C8.74920167 14.35827272 8.75035552 15.11643729 8.75154433 15.89757654 C8.75420819 18.45861009 8.74969069 21.01958178 8.74525452 23.58061218 C8.74569027 25.42698726 8.74656524 27.27336228 8.74784368 29.11973697 C8.75008792 34.20947026 8.7460683 39.29918265 8.74106562 44.38891327 C8.73676031 49.87152935 8.7382076 55.35414418 8.7389679 60.83676147 C8.73949308 70.34109973 8.73634686 79.84543115 8.73073006 89.34976768 C8.7226143 103.09156325 8.71999976 116.8333555 8.71874207 130.57515321 C8.71655167 152.86854466 8.70990047 175.16193292 8.70043945 197.45532227 C8.69125777 219.11547832 8.68417281 240.7756334 8.67993164 262.43579102 C8.67973435 263.43696364 8.67973435 263.43696364 8.67953308 264.45836197 C8.67808375 271.82611722 8.6766919 279.19387248 8.67532361 286.56162775 C8.66495137 342.12442102 8.64733337 397.68721034 8.625 453.25 C9.56682387 453.24924056 10.50864773 453.24848112 11.47901171 453.24769866 C67.26032554 453.20289596 123.0416377 453.16864229 178.8229659 453.14786934 C185.5160105 453.14536783 192.20905506 453.14278152 198.90209961 453.14013672 C199.90116868 453.13974444 199.90116868 453.13974444 200.92042096 453.13934424 C222.51728466 453.13081826 244.11413792 453.11579319 265.71099529 453.09740556 C288.52928215 453.07801324 311.34756442 453.06600995 334.16585952 453.06182301 C347.83924752 453.0590745 361.51260552 453.05038376 375.18598429 453.03416707 C384.55373288 453.02362071 393.9214659 453.02039403 403.28922 453.02299725 C408.69934689 453.0242822 414.10942125 453.02226919 419.51953888 453.01158905 C424.4684762 453.00189034 429.41732542 453.00134303 434.36626671 453.00820221 C436.16042363 453.00905056 437.95458594 453.00648493 439.74873217 453.00023364 C442.18073484 452.99224986 444.6124162 452.99650791 447.04441357 453.00390434 C448.09801806 452.9960233 448.09801806 452.9960233 449.1729075 452.98798305 C454.25244466 453.02307759 457.96900462 453.59400462 461.625 457.25 C461.92578125 459.30859375 461.92578125 459.30859375 461.9375 461.6875 C461.95425781 462.46996094 461.97101562 463.25242187 461.98828125 464.05859375 C461.53892045 466.76925408 460.78323513 467.59720635 458.625 469.25 C455.9187563 470.15208123 454.38649014 470.37227599 451.61254883 470.36352539 C450.81194534 470.36344986 450.01134186 470.36337433 449.18647766 470.36329651 C448.32701035 470.35813522 447.46754303 470.35297394 446.58203125 470.34765625 C445.6984343 470.3462413 444.81483734 470.34482635 443.90446472 470.34336853 C441.08210872 470.33777069 438.25983203 470.32521861 435.4375 470.3125 C433.52408969 470.30748472 431.61067813 470.30292186 429.69726562 470.29882812 C425.00647986 470.28780197 420.31575337 470.27053883 415.625 470.25 C415.64071045 471.31436279 415.6564209 472.37872559 415.67260742 473.4753418 C415.72703054 477.43555086 415.76139493 481.39572704 415.78979492 485.35620117 C415.8048534 487.06817184 415.82530455 488.78010411 415.85131836 490.49194336 C415.8878319 492.95696505 415.90475562 495.42147535 415.91796875 497.88671875 C415.93345261 498.64836838 415.94893646 499.41001801 415.96488953 500.19474792 C415.96632258 504.75061785 415.38930106 507.59850034 412.625 511.25 C411.04577594 512.82922406 409.43056126 512.457659 407.25 512.5 C406.45851563 512.52578125 405.66703125 512.5515625 404.8515625 512.578125 C402.625 512.25 402.625 512.25 400.8984375 510.984375 C397.91052715 506.91495109 398.49363737 502.04728915 398.52734375 497.203125 C398.52835083 496.51911621 398.52935791 495.83510742 398.53039551 495.13037109 C398.5356087 492.58689689 398.54956994 490.04344668 398.5625 487.5 C398.583125 481.8075 398.60375 476.115 398.625 470.25 C384.435 470.25 370.245 470.25 355.625 470.25 C355.74329189 477.59445639 355.74329189 477.59445639 355.89526367 484.93823242 C355.90650269 486.3203894 355.90650269 486.3203894 355.91796875 487.73046875 C355.9336792 488.66785889 355.94938965 489.60524902 355.96557617 490.57104492 C355.55455711 493.80410028 354.55479648 495.64243517 352.625 498.25 C349.35486886 499.88506557 347.53154217 500.43974138 343.9375 499.6875 C341.04495473 497.88943132 340.1393407 496.28702413 338.625 493.25 C338.28442383 490.57104492 338.28442383 490.57104492 338.33203125 487.73046875 C338.33952393 486.80903076 338.3470166 485.88759277 338.35473633 484.93823242 C338.38204834 483.78299072 338.40936035 482.62774902 338.4375 481.4375 C338.499375 477.745625 338.56125 474.05375 338.625 470.25 C324.435 470.25 310.245 470.25 295.625 470.25 C295.74329189 477.59445639 295.74329189 477.59445639 295.89526367 484.93823242 C295.90650269 486.3203894 295.90650269 486.3203894 295.91796875 487.73046875 C295.9336792 488.66785889 295.94938965 489.60524902 295.96557617 490.57104492 C295.55455711 493.80410028 294.55479648 495.64243517 292.625 498.25 C289.35486886 499.88506557 287.53154217 500.43974138 283.9375 499.6875 C281.04495473 497.88943132 280.1393407 496.28702413 278.625 493.25 C278.28442383 490.57104492 278.28442383 490.57104492 278.33203125 487.73046875 C278.33952393 486.80903076 278.3470166 485.88759277 278.35473633 484.93823242 C278.38204834 483.78299072 278.40936035 482.62774902 278.4375 481.4375 C278.499375 477.745625 278.56125 474.05375 278.625 470.25 C264.435 470.25 250.245 470.25 235.625 470.25 C235.70399658 481.54343197 235.70399658 481.54343197 235.80517578 492.83666992 C235.81102073 494.25959981 235.81611629 495.68253305 235.8203125 497.10546875 C235.83054443 497.83560181 235.84077637 498.56573486 235.85131836 499.31799316 C235.85271081 503.40830475 235.54099566 506.60674981 233.625 510.25 C231.21013057 512.66486943 230.49792211 512.5461925 227.1875 512.5625 C226.40503906 512.57925781 225.62257813 512.59601562 224.81640625 512.61328125 C222.10574592 512.16392045 221.27779365 511.40823513 219.625 509.25 C218.37226433 505.49179299 218.50107038 501.99510785 218.52734375 498.08203125 C218.52835083 497.37735718 218.52935791 496.67268311 218.53039551 495.94665527 C218.53562086 493.31858692 218.54958214 490.6905418 218.5625 488.0625 C218.583125 482.184375 218.60375 476.30625 218.625 470.25 C204.105 470.25 189.585 470.25 174.625 470.25 C174.74357485 478.67179993 174.74357485 478.67179993 174.89526367 487.09301758 C174.90275635 488.14126709 174.91024902 489.1895166 174.91796875 490.26953125 C174.94153442 491.87985229 174.94153442 491.87985229 174.96557617 493.52270508 C174.625 496.25 174.625 496.25 173.25512695 498.07299805 C171.01552327 499.690061 169.37797082 500.05335923 166.625 500.25 C162.59861336 499.19547017 160.76073995 497.78990046 158.625 494.25 C158.28442383 491.59277344 158.28442383 491.59277344 158.33203125 488.609375 C158.33952393 487.64483398 158.3470166 486.68029297 158.35473633 485.68652344 C158.38204834 484.4699707 158.40936035 483.25341797 158.4375 482 C158.499375 478.1225 158.56125 474.245 158.625 470.25 C144.105 470.25 129.585 470.25 114.625 470.25 C114.74345206 478.29767046 114.74345206 478.29767046 114.89526367 486.34472656 C114.90275635 487.34987305 114.91024902 488.35501953 114.91796875 489.390625 C114.94153442 490.93024902 114.94153442 490.93024902 114.96557617 492.50097656 C114.57493908 495.65407596 113.81350772 496.9831557 111.625 499.25 C108.65981235 500.34243756 107.05949953 500.3637975 104 499.5625 C101.27096992 498.0543518 100.23025786 496.91064839 98.625 494.25 C98.28442383 491.59277344 98.28442383 491.59277344 98.33203125 488.609375 C98.33952393 487.64483398 98.3470166 486.68029297 98.35473633 485.68652344 C98.38204834 484.4699707 98.40936035 483.25341797 98.4375 482 C98.499375 478.1225 98.56125 474.245 98.625 470.25 C84.105 470.25 69.585 470.25 54.625 470.25 C54.7831355 482.5760366 54.7831355 482.5760366 54.98535156 494.90136719 C54.9970371 496.44985858 55.00722925 497.99836228 55.015625 499.546875 C55.03608887 500.34689941 55.05655273 501.14692383 55.07763672 501.97119141 C55.07994456 505.65220055 54.98350813 507.77652044 52.72558594 510.75854492 C50.4686048 512.3610435 49.36511079 512.81785178 46.625 512.8125 C45.965 512.83441406 45.305 512.85632813 44.625 512.87890625 C41.40213684 511.86546686 40.4128788 510.07107971 38.625 507.25 C38.282092 504.25656068 38.15583345 501.6487739 38.234375 498.66796875 C38.24003479 497.85378983 38.24569458 497.0396109 38.25152588 496.20075989 C38.27383226 493.61239647 38.32401555 491.0254416 38.375 488.4375 C38.39507253 486.67775444 38.41332198 484.91798707 38.4296875 483.15820312 C38.47026937 478.85449584 38.54856322 474.55381544 38.625 470.25 C28.725 470.25 18.825 470.25 8.625 470.25 C8.65980469 472.79074219 8.69460937 475.33148438 8.73046875 477.94921875 C8.75388523 480.41820147 8.77208986 482.88717167 8.78979492 485.35620117 C8.8048534 487.06817184 8.82530455 488.78010411 8.85131836 490.49194336 C8.8878319 492.95696505 8.90475562 495.42147535 8.91796875 497.88671875 C8.93345261 498.64836838 8.94893646 499.41001801 8.96488953 500.19474792 C8.96632258 504.75061785 8.38930106 507.59850034 5.625 511.25 C4.04577594 512.82922406 2.43056126 512.457659 0.25 512.5 C-0.54148438 512.52578125 -1.33296875 512.5515625 -2.1484375 512.578125 C-4.90214035 512.17231616 -5.70771658 511.43894879 -7.375 509.25 C-8.62782725 505.49151826 -8.49881835 501.99509081 -8.47265625 498.08203125 C-8.4712413 497.28721848 -8.46982635 496.4924057 -8.46836853 495.67350769 C-8.46277378 493.13646675 -8.45022228 490.59951425 -8.4375 488.0625 C-8.43248432 486.34179815 -8.42792153 484.62109492 -8.42382812 482.90039062 C-8.41280607 478.6835597 -8.39554506 474.46679484 -8.375 470.25 C-9.43936279 470.26571045 -10.50372559 470.2814209 -11.6003418 470.29760742 C-15.56055086 470.35203054 -19.52072704 470.38639493 -23.48120117 470.41479492 C-25.19317184 470.4298534 -26.90510411 470.45030455 -28.61694336 470.47631836 C-31.08196505 470.5128319 -33.54647535 470.52975562 -36.01171875 470.54296875 C-37.15419319 470.56619453 -37.15419319 470.56619453 -38.31974792 470.58988953 C-42.87561785 470.59132258 -45.72350034 470.01430106 -49.375 467.25 C-50.95422406 465.67077594 -50.582659 464.05556126 -50.625 461.875 C-50.65078125 461.08351563 -50.6765625 460.29203125 -50.703125 459.4765625 C-50.375 457.25 -50.375 457.25 -49.109375 455.5234375 C-45.04012352 452.53565376 -40.17173258 453.11878489 -35.328125 453.15234375 C-34.17132233 453.15446617 -34.17132233 453.15446617 -32.9911499 453.15663147 C-30.53572662 453.16221466 -28.08039558 453.17476405 -25.625 453.1875 C-23.95703257 453.19251717 -22.28906371 453.1970797 -20.62109375 453.20117188 C-16.53899864 453.21132634 -12.4571022 453.23090493 -8.375 453.25 C-8.375 443.35 -8.375 433.45 -8.375 423.25 C-10.98792969 423.29640625 -13.60085937 423.3428125 -16.29296875 423.390625 C-18.83144184 423.42184481 -21.36989332 423.4461187 -23.90844727 423.46972656 C-25.66896175 423.48980786 -27.42940982 423.51707879 -29.18969727 423.55175781 C-31.72428802 423.60043112 -34.25799495 423.62300305 -36.79296875 423.640625 C-37.57649216 423.66127014 -38.36001556 423.68191528 -39.1672821 423.70318604 C-42.96205332 423.70473453 -45.13494333 423.40213758 -48.37207031 421.35058594 C-50.375 419.25 -50.375 419.25 -51.00390625 417.25 C-50.98199219 416.59 -50.96007813 415.93 -50.9375 415.25 C-50.93878906 414.59 -50.94007812 413.93 -50.94140625 413.25 C-50.08505263 410.22618583 -48.88814052 409.15289375 -46.375 407.25 C-43.34919652 406.90147421 -40.68922239 406.78219411 -37.671875 406.859375 C-36.9288916 406.86340332 -36.1859082 406.86743164 -35.42041016 406.87158203 C-32.65502087 406.89245077 -29.88998466 406.94829666 -27.125 407 C-20.9375 407.0825 -14.75 407.165 -8.375 407.25 C-8.375 392.73 -8.375 378.21 -8.375 363.25 C-16.04879545 363.40776309 -16.04879545 363.40776309 -23.72143555 363.61035156 C-31.61279995 363.69229857 -31.61279995 363.69229857 -35.5859375 361.38671875 C-37.69193809 358.8714735 -38.29507298 357.52700787 -38.375 354.25 C-37.4388375 351.15346249 -36.67076678 349.54576678 -34.375 347.25 C-31.76123047 347.02294922 -31.76123047 347.02294922 -28.4921875 347.0546875 C-27.44144043 347.05968262 -26.39069336 347.06467773 -25.30810547 347.06982422 C-23.29934326 347.09713623 -23.29934326 347.09713623 -21.25 347.125 C-17.00125 347.16625 -12.7525 347.2075 -8.375 347.25 C-8.375 332.73 -8.375 318.21 -8.375 303.25 C-16.04879545 303.40776309 -16.04879545 303.40776309 -23.72143555 303.61035156 C-31.61279995 303.69229857 -31.61279995 303.69229857 -35.5859375 301.38671875 C-37.69193809 298.8714735 -38.29507298 297.52700787 -38.375 294.25 C-37.4388375 291.15346249 -36.67076678 289.54576678 -34.375 287.25 C-31.76123047 287.02294922 -31.76123047 287.02294922 -28.4921875 287.0546875 C-27.44144043 287.05968262 -26.39069336 287.06467773 -25.30810547 287.06982422 C-23.29934326 287.09713623 -23.29934326 287.09713623 -21.25 287.125 C-17.00125 287.16625 -12.7525 287.2075 -8.375 287.25 C-8.375 272.73 -8.375 258.21 -8.375 243.25 C-19.99764843 243.36850743 -19.99764843 243.36850743 -31.61987305 243.52026367 C-33.08381493 243.52903074 -34.54776415 243.53667416 -36.01171875 243.54296875 C-36.7634436 243.55831665 -37.51516846 243.57366455 -38.28967285 243.58947754 C-42.85598615 243.59174445 -45.7137182 243.02170645 -49.375 240.25 C-50.95422406 238.67077594 -50.582659 237.05556126 -50.625 234.875 C-50.65078125 234.08351562 -50.6765625 233.29203125 -50.703125 232.4765625 C-50.375 230.25 -50.375 230.25 -49.109375 228.5234375 C-45.03995109 225.53552715 -40.17228915 226.11863737 -35.328125 226.15234375 C-34.64411621 226.15335083 -33.96010742 226.15435791 -33.25537109 226.15539551 C-30.71189689 226.1606087 -28.16844668 226.17456994 -25.625 226.1875 C-19.9325 226.208125 -14.24 226.22875 -8.375 226.25 C-8.375 212.06 -8.375 197.87 -8.375 183.25 C-15.71945639 183.36829189 -15.71945639 183.36829189 -23.06323242 183.52026367 C-23.98467041 183.52775635 -24.9061084 183.53524902 -25.85546875 183.54296875 C-26.79285889 183.5586792 -27.73024902 183.57438965 -28.69604492 183.59057617 C-31.92910028 183.17955711 -33.76743517 182.17979648 -36.375 180.25 C-38.06058494 176.87883011 -38.6238441 175.16242837 -37.625 171.5 C-36.26324421 169.04883957 -35.27947034 167.56101903 -32.57519531 166.63110352 C-30.06599805 166.19647669 -27.71877951 166.13753617 -25.171875 166.15234375 C-24.28854492 166.15484131 -23.40521484 166.15733887 -22.49511719 166.15991211 C-21.38297852 166.16901611 -20.27083984 166.17812012 -19.125 166.1875 C-13.80375 166.2184375 -13.80375 166.2184375 -8.375 166.25 C-8.375 152.06 -8.375 137.87 -8.375 123.25 C-15.39017326 123.32883993 -15.39017326 123.32883993 -22.4050293 123.43017578 C-23.28586182 123.4351709 -24.16669434 123.44016602 -25.07421875 123.4453125 C-25.96971436 123.45578613 -26.86520996 123.46625977 -27.7878418 123.47705078 C-31.78936012 123.12587478 -34.53027611 122.09472389 -37.375 119.25 C-38.31650513 116.34702584 -38.46004063 114.60717066 -37.75 111.625 C-36.01620056 108.63025551 -34.45971075 107.78157349 -31.375 106.25 C-28.69604492 105.90942383 -28.69604492 105.90942383 -25.85546875 105.95703125 C-24.47331177 105.96827026 -24.47331177 105.96827026 -23.06323242 105.97973633 C-21.90799072 106.00704834 -20.75274902 106.03436035 -19.5625 106.0625 C-15.870625 106.124375 -12.17875 106.18625 -8.375 106.25 C-8.375 91.73 -8.375 77.21 -8.375 62.25 C-21.07502085 62.36867658 -21.07502085 62.36867658 -33.7746582 62.52026367 C-35.3666931 62.52902543 -36.9587347 62.5366701 -38.55078125 62.54296875 C-39.79087952 62.5659906 -39.79087952 62.5659906 -41.05603027 62.58947754 C-46.95048907 62.5921777 -46.95048907 62.5921777 -49.09513855 60.86347961 C-50.77626193 58.74414216 -50.77680112 57.43011222 -50.75 54.75 C-50.75773437 53.9765625 -50.76546875 53.203125 -50.7734375 52.40625 C-50.2806562 49.73943358 -49.5026451 48.88818683 -47.375 47.25 C-43.61651826 45.99717275 -40.12009081 46.12618165 -36.20703125 46.15234375 C-35.41221848 46.1537587 -34.6174057 46.15517365 -33.79850769 46.15663147 C-31.26146675 46.16222622 -28.72451425 46.17477772 -26.1875 46.1875 C-24.46679815 46.19251568 -22.74609492 46.19707847 -21.02539062 46.20117188 C-16.8085597 46.21219393 -12.59179484 46.22945494 -8.375 46.25 C-8.39071045 45.06446533 -8.4064209 43.87893066 -8.42260742 42.6574707 C-8.47699565 38.249988 -8.51138246 33.84253485 -8.53979492 29.43481445 C-8.55486128 27.52883919 -8.57531824 25.62289848 -8.60131836 23.71704102 C-8.63779642 20.97403424 -8.65474792 18.23148672 -8.66796875 15.48828125 C-8.68345261 14.63913651 -8.69893646 13.78999176 -8.71488953 12.91511536 C-8.71623312 8.16878414 -8.40246167 5.14190368 -5.375 1.25 C-3.79577594 -0.32922406 -2.18056126 0.042341 0 0 Z " fill="#C2E2FE" transform="translate(50.375,-0.25)"/>
<path d="M0 0 C2.4375 1.4375 2.4375 1.4375 4 4 C4.7301936 12.10680854 2.56001905 18.83822319 0.0625 26.5 C-0.35096984 27.79089273 -0.76404926 29.08191056 -1.17675781 30.37304688 C-2.42630486 34.25715058 -3.70989294 38.12917585 -5 42 C-5.36303223 43.09570312 -5.72606445 44.19140625 -6.10009766 45.3203125 C-17.22453227 78.52199113 -31.51029595 112.39306493 -56 138 C-56.96679688 139.06154297 -56.96679688 139.06154297 -57.953125 140.14453125 C-67.76784045 150.57765356 -79.88262263 156.91023599 -94.31054688 157.42016602 C-112.67834763 157.5655846 -128.06704833 151.43706516 -141.28369141 138.78442383 C-148.4267845 131.72192514 -155.18036396 124.28271271 -161.75 116.6875 C-173.61468926 103.11155748 -187.6889835 93.13071671 -206.2265625 91.76171875 C-227.24982715 91.30258998 -242.41981176 103.12414831 -257 117 C-271.88367578 131.90455051 -284.64500757 149.79393183 -295.5 167.80078125 C-297.11530447 170.16905317 -298.96265512 171.99089554 -301 174 C-302.39485869 175.86588834 -302.39485869 175.86588834 -303.5625 177.8125 C-303.95566406 178.43769531 -304.34882813 179.06289062 -304.75390625 179.70703125 C-306.0904094 182.06633104 -306.0904094 182.06633104 -307.2109375 184.96484375 C-309.39520386 190.16774551 -312.27200438 195.00755209 -315.03475952 199.91897583 C-329.25762007 225.25844817 -342.49997755 251.10734101 -354.45996094 277.59179688 C-356.02757414 281.06102329 -357.61078299 284.52284667 -359.1953125 287.984375 C-367.60906676 306.46295608 -375.37196443 325.18625035 -383 344 C-383.99 344 -384.98 344 -386 344 C-387.37502203 341.63508245 -388.72444458 339.26071484 -390.0625 336.875 C-390.45244141 336.20984375 -390.84238281 335.5446875 -391.24414062 334.859375 C-391.79038086 333.87324219 -391.79038086 333.87324219 -392.34765625 332.8671875 C-392.85824585 331.97169189 -392.85824585 331.97169189 -393.37915039 331.05810547 C-394.80120461 326.3440209 -392.67078518 321.77340462 -390.8046875 317.44921875 C-390.34400879 316.37551025 -389.88333008 315.30180176 -389.40869141 314.19555664 C-388.64951416 312.4590686 -388.64951416 312.4590686 -387.875 310.6875 C-387.33886895 309.4511603 -386.80290282 308.21474907 -386.26708984 306.97827148 C-375.42570241 282.0442698 -363.97472763 257.40837975 -352 233 C-351.4834082 231.93958496 -350.96681641 230.87916992 -350.43457031 229.78662109 C-344.92621795 218.48866139 -339.20733889 207.34163052 -333.0625 196.375 C-332.53068115 195.42061035 -331.9988623 194.4662207 -331.45092773 193.48291016 C-328.64585978 188.55015083 -325.72011381 184.27525944 -322 180 C-320.59093885 177.85503804 -320.59093885 177.85503804 -319.5 175.75 C-318.87544922 174.59177734 -318.87544922 174.59177734 -318.23828125 173.41015625 C-317.0111174 171.02163861 -315.84934392 168.60833199 -314.6875 166.1875 C-311.66248472 160.09049715 -307.88697426 154.57518725 -304 149 C-303.61150879 148.4426416 -303.22301758 147.8852832 -302.82275391 147.31103516 C-292.96589573 133.22014504 -282.49650836 119.794316 -271 107 C-270.26394531 106.17757812 -269.52789062 105.35515625 -268.76953125 104.5078125 C-254.94045844 89.90302768 -235.71797265 75.73863301 -214.9296875 74.69921875 C-213.57825675 74.67994789 -212.22652258 74.67640217 -210.875 74.6875 C-210.14708252 74.69241455 -209.41916504 74.6973291 -208.66918945 74.70239258 C-183.51313197 75.23437731 -165.80698521 87.35094566 -148.89453125 104.83203125 C-145.00191758 108.94219247 -141.40724745 113.20138302 -137.8984375 117.64453125 C-128.95327899 128.74315385 -117.35417485 137.68690255 -103 140 C-90.915209 140.96614974 -82.46652876 138.64925773 -73.14453125 130.89453125 C-72.43683594 130.26933594 -71.72914063 129.64414063 -71 129 C-70.34386719 128.42636719 -69.68773437 127.85273438 -69.01171875 127.26171875 C-37.8731087 98.11997347 -21.03143296 45.50876814 -11.92163086 5.29492188 C-9.70345113 -0.22849256 -5.47034237 -0.6837928 0 0 Z " fill="#6BB539" transform="translate(508,25)"/>
<path d="M0 0 C1.9375 1.0625 1.9375 1.0625 3 3 C3.49254517 7.36254296 3.71977613 9.77038245 1.5 13.5625 C-1.16778844 16.16359373 -3.90521359 18.63532103 -6.73828125 21.0546875 C-9.13783821 23.11855514 -11.47465423 25.24157636 -13.8125 27.375 C-18.07880589 31.22050182 -22.451693 34.89731266 -26.91796875 38.5078125 C-29.13919369 40.30393609 -31.34900377 42.11008536 -33.55078125 43.9296875 C-74.90600374 78 -74.90600374 78 -81 78 C-77.62668165 83.45001747 -74.21070831 88.78362939 -70.3125 93.875 C-36.58533804 139.75433785 -16.85280132 198.9757691 -0.75 253.125 C-0.55482788 253.76898743 -0.35965576 254.41297485 -0.15856934 255.07647705 C1.98971477 262.20650633 3.65365296 268.53297619 3 276 C1.4375 278.5625 1.4375 278.5625 -1 280 C-4.67950851 280.52564407 -6.9175302 280.74940217 -10.03125 278.59375 C-12.95039607 274.74789089 -13.78989852 270.62830255 -15 266 C-30.52185724 209.98103781 -51.08604858 150.63944059 -85 103 C-85.43006348 102.39236816 -85.86012695 101.78473633 -86.30322266 101.15869141 C-89.18257725 97.09154045 -92.08325548 93.04040839 -95 89 C-95.55042969 89.30550781 -96.10085938 89.61101562 -96.66796875 89.92578125 C-99.11457332 91.27236206 -101.56916624 92.60346529 -104.02685547 93.9296875 C-105.42440113 94.68777215 -106.81897406 95.45134892 -108.21142578 96.21875 C-138.08947193 112.65259245 -169.63846832 125.54712822 -204 117 C-216.04228118 113.48249519 -226.36641185 106.92614249 -236 99 C-234.6744419 95.37723685 -233.05653045 92.36494652 -230.875 89.1875 C-230.33617187 88.39730469 -229.79734375 87.60710937 -229.2421875 86.79296875 C-228.83226562 86.20128906 -228.42234375 85.60960937 -228 85 C-224.39097095 86.27819779 -221.88280463 87.75006786 -219 90.25 C-206.79693456 99.91579441 -190.50967182 104.54672957 -175 103 C-153.23804086 99.85281084 -133.16279892 91.02952618 -114.45605469 79.76904297 C-110.05822051 77.12709613 -105.74041497 74.95736988 -101 73 C-99.60178656 72.25009314 -98.22139916 71.46438692 -96.875 70.625 C-96.25367188 70.24601562 -95.63234375 69.86703125 -94.9921875 69.4765625 C-92.86148789 67.98404639 -92.86148789 67.98404639 -90.80859375 65.7109375 C-87.24181762 62.26818001 -83.31795448 59.71767723 -79.1875 57 C-70.6676083 51.28624687 -62.73567244 45.09222703 -54.86132812 38.53027344 C-51.93497696 36.12440131 -48.93401949 33.81735343 -45.9375 31.5 C-34.9998031 22.97958548 -24.66446052 13.75608738 -14.5859375 4.2421875 C-9.50267309 -0.16535596 -6.73054453 -1.74495599 0 0 Z " fill="#F8B91C" transform="translate(509,167)"/>
<path d="M0 0 C0.66521119 -0.00297112 1.33042237 -0.00594224 2.01579148 -0.0090034 C4.25517423 -0.01770729 6.49450363 -0.01920006 8.73390198 -0.02069092 C10.33522151 -0.02531783 11.93653993 -0.03034232 13.53785706 -0.03573608 C17.89523868 -0.04887276 22.25260489 -0.0553073 26.61000323 -0.05974674 C29.33006229 -0.06267492 32.0501171 -0.0667792 34.77017403 -0.07125092 C43.27417146 -0.08492808 51.77815923 -0.09459413 60.2821669 -0.09845281 C70.11109549 -0.10293676 79.93988523 -0.12049932 89.76877159 -0.1494534 C97.35860781 -0.1710386 104.94840488 -0.18115536 112.53827149 -0.18249393 C117.07509286 -0.18354407 121.61178376 -0.18949622 126.14857292 -0.20731354 C130.41425044 -0.2237401 134.67969864 -0.22597627 138.94539642 -0.21717453 C140.51316248 -0.21640128 142.0809406 -0.22078453 143.64867592 -0.23063278 C145.78477789 -0.24326719 147.92005712 -0.23752297 150.05615234 -0.22705078 C151.8511349 -0.22925062 151.8511349 -0.22925062 153.68237972 -0.2314949 C156.59156799 0.14044189 156.59156799 0.14044189 158.47577 1.49019241 C160.19032694 4.02599792 159.98065695 6.20526318 159.99000549 9.23419189 C159.99387268 10.42915283 159.99773987 11.62411377 160.00172424 12.85528564 C159.9843219 14.72893799 159.9843219 14.72893799 159.96656799 16.64044189 C159.97816956 17.88954346 159.98977112 19.13864502 160.00172424 20.42559814 C159.99785706 21.62055908 159.99398987 22.81552002 159.99000549 24.04669189 C159.9866217 25.14303955 159.98323792 26.23938721 159.97975159 27.36895752 C159.59156799 30.14044189 159.59156799 30.14044189 158.47534943 31.78985023 C155.68657032 33.78928697 153.47083321 33.51816813 150.06288147 33.52139282 C149.06378305 33.52841278 149.06378305 33.52841278 148.04450083 33.53557456 C145.80803544 33.54756032 143.57217878 33.53805385 141.33570862 33.52862549 C139.73423911 33.53268962 138.13277241 33.5380306 136.53131104 33.54455566 C132.17805062 33.55825402 127.82500304 33.55292028 123.47173882 33.54341841 C118.92073356 33.53583483 114.3697468 33.54286379 109.81874084 33.5475769 C102.17543763 33.55303826 94.53222131 33.54583289 86.88893127 33.53155518 C78.04622194 33.51522792 69.2037201 33.52051616 60.3610158 33.53703439 C52.77539049 33.55063845 45.18982773 33.55257422 37.60419416 33.54471838 C33.07076077 33.54003591 28.53742497 33.53943274 24.0039978 33.54932785 C19.74238155 33.55797956 15.4810334 33.55200867 11.21944618 33.53464508 C9.65330259 33.5306706 8.08713653 33.53183067 6.52100182 33.53843307 C4.38711245 33.54660111 2.25408838 33.53638576 0.12025452 33.52139282 C-1.0751017 33.52026175 -2.27045792 33.51913067 -3.50203705 33.51796532 C-6.40843201 33.14044189 -6.40843201 33.14044189 -8.25397491 31.80413246 C-11.36151356 27.32585193 -10.59241316 21.97333704 -10.59593201 16.76544189 C-10.6081781 15.81927002 -10.62042419 14.87309814 -10.63304138 13.89825439 C-10.65185917 4.96607559 -10.65185917 4.96607559 -8.40843201 1.14044189 C-5.56890761 -0.2793203 -3.17626321 0.00789809 0 0 Z " fill="#BBDEFD" transform="translate(136.40843200683594,61.85955810546875)"/>
<path d="M0 0 C2.63172416 1.02951843 3.46349604 2.22854113 5.07763672 4.53491211 C5.63467285 5.32551025 6.19170898 6.1161084 6.765625 6.93066406 C7.35327637 7.79522217 7.94092773 8.65978027 8.54638672 9.55053711 C9.16368652 10.44796631 9.78098633 11.34539551 10.41699219 12.27001953 C16.87211341 21.79534019 22.57651155 31.68444294 28.04638672 41.80053711 C28.54380371 42.71706055 29.0412207 43.63358398 29.55371094 44.57788086 C51.69191877 85.59721359 68.02808527 129.30793893 81.29638672 173.92553711 C81.49155884 174.56952454 81.68673096 175.21351196 81.88781738 175.87701416 C84.03610149 183.00704344 85.70003968 189.3335133 85.04638672 196.80053711 C83.48388672 199.36303711 83.48388672 199.36303711 81.04638672 200.80053711 C77.36687821 201.32618118 75.12885652 201.54993928 72.01513672 199.39428711 C69.09599065 195.548428 68.2564882 191.42883966 67.04638672 186.80053711 C51.52452948 130.78157492 30.96033813 71.4399777 -2.95361328 23.80053711 C-3.38367676 23.19290527 -3.81374023 22.58527344 -4.25683594 21.95922852 C-7.13619053 17.89207756 -10.03686876 13.8409455 -12.95361328 9.80053711 C-11.50824541 6.23374221 -9.75620382 4.61522812 -6.57861328 2.48803711 C-5.80775391 1.9556543 -5.03689453 1.42327148 -4.24267578 0.87475586 C-1.95361328 -0.19946289 -1.95361328 -0.19946289 0 0 Z " fill="#E01370" transform="translate(426.95361328125,246.199462890625)"/>
<path d="M0 0 C0.8814418 -0.0049649 1.76288361 -0.00992981 2.67103577 -0.01504517 C5.59531425 -0.02968458 8.5195385 -0.03647162 11.44384766 -0.04199219 C13.47164919 -0.04774201 15.49945071 -0.05349977 17.5272522 -0.05926514 C21.78265639 -0.06978008 26.03804167 -0.07561957 30.29345703 -0.07910156 C35.75015685 -0.08458844 41.2066074 -0.10861859 46.66322899 -0.13707352 C50.85306533 -0.15568319 55.04284142 -0.1609046 59.23271561 -0.16243744 C61.2445881 -0.16546809 63.25645943 -0.17351045 65.26829147 -0.18662262 C68.0813985 -0.20364876 70.89389381 -0.20181131 73.70703125 -0.1953125 C74.54042526 -0.20452728 75.37381927 -0.21374207 76.23246765 -0.22323608 C79.56237087 -0.1990986 82.03279914 -0.07880657 85.0010376 1.50346375 C87.27648148 4.04884655 86.96795113 6.15155281 86.94384766 9.50878906 C86.93998047 10.75337891 86.93611328 11.99796875 86.93212891 13.28027344 C86.89539063 15.23223633 86.89539063 15.23223633 86.85791016 17.22363281 C86.85662109 18.52880859 86.85533203 19.83398438 86.85400391 21.17871094 C86.76347334 30.88056963 86.76347334 30.88056963 84.48291016 33.16113281 C81.48650789 33.3757922 78.58146337 33.46525509 75.58276367 33.4675293 C74.66070129 33.47585281 73.73863892 33.48417633 72.78863525 33.49275208 C69.72965316 33.51691894 66.67088395 33.5256319 63.61181641 33.53222656 C61.49193759 33.54118708 59.37205946 33.5503088 57.25218201 33.55958557 C52.80425476 33.57609582 48.35640298 33.58377951 43.90844727 33.58666992 C38.20035154 33.59205895 32.49296177 33.62975209 26.78506565 33.67541409 C22.40566904 33.70510964 18.02644405 33.71239183 13.64695549 33.71339607 C11.54213156 33.71761252 9.43730775 33.73010344 7.33258247 33.75091362 C4.3920056 33.77767539 1.45308632 33.77304829 -1.48754883 33.76049805 C-2.36194107 33.77533234 -3.23633331 33.79016663 -4.13722229 33.80545044 C-6.37621128 33.77814432 -8.34793845 33.71594344 -10.51708984 33.16113281 C-13.32209356 29.88777179 -13.89888173 27.28472855 -13.91552734 23.03613281 C-13.91939453 22.08222656 -13.92326172 21.12832031 -13.92724609 20.14550781 C-13.91564453 19.16066406 -13.90404297 18.17582031 -13.89208984 17.16113281 C-13.90369141 16.17628906 -13.91529297 15.19144531 -13.92724609 14.17675781 C-13.89049092 5.11048041 -13.89049092 5.11048041 -10.51708984 1.16113281 C-7.23801517 -0.47840453 -3.60447305 0.00481143 0 0 Z " fill="#CBE5FE" transform="translate(139.51708984375,108.8388671875)"/>
<path d="M0 0 C2.42703498 -0.17669943 4.80892314 -0.18364956 7.24220467 -0.14236832 C8.62792671 -0.14828239 8.62792671 -0.14828239 10.04164314 -0.15431595 C13.10050052 -0.1610384 16.15787189 -0.13183929 19.2165699 -0.10159683 C21.33741148 -0.0973483 23.4582577 -0.09501834 25.57910347 -0.09453201 C30.02544893 -0.08836103 34.47129173 -0.06563236 38.91749763 -0.03006363 C44.62657977 0.01523685 50.33520647 0.02996326 56.04445171 0.03367329 C60.42382517 0.03809474 64.80310233 0.05338548 69.18243408 0.07254982 C71.28804352 0.08145002 73.3936633 0.08817124 75.49928665 0.09271049 C78.43720727 0.10171968 81.37470918 0.12408065 84.31251717 0.15060043 C85.18893364 0.15126511 86.06535011 0.15192978 86.96832466 0.15261459 C92.98349468 0.22782795 92.98349468 0.22782795 95.21266365 2.45699692 C95.70159709 7.08460807 95.58307059 11.74402375 95.58766365 16.39449692 C95.61215584 17.69580551 95.63664803 18.99711411 95.6618824 20.33785629 C95.66574959 21.58244614 95.66961678 22.82703598 95.67360115 24.10934067 C95.68181892 25.2539476 95.6900367 26.39855453 95.69850349 27.57784653 C95.21266365 30.45699692 95.21266365 30.45699692 93.72880745 32.11268234 C90.06635139 34.06944374 86.52015098 33.87481524 82.46852303 33.84518051 C81.14592224 33.85306595 81.14592224 33.85306595 79.79660225 33.86111069 C76.88302567 33.87431069 73.96999576 33.86557256 71.05641365 33.85543442 C69.03146955 33.85745515 67.00652616 33.86036658 64.98158455 33.86413193 C60.73806516 33.86855528 56.49473524 33.86212377 52.25123787 33.8481102 C46.81024533 33.8310184 41.36969673 33.8408595 35.92872047 33.85882759 C31.74743997 33.86966506 27.56626482 33.86621924 23.38498116 33.85844421 C21.37870417 33.85644211 19.37241764 33.85890184 17.36615181 33.86588287 C14.562778 33.87349665 11.76012441 33.8618941 8.95680428 33.84518051 C8.12655235 33.8512532 7.29630043 33.8573259 6.44088936 33.86358261 C3.13474432 33.82704221 0.66991821 33.70306701 -2.27134514 32.12023544 C-6.05273948 27.97155654 -5.01026209 21.84117103 -5.03733635 16.58199692 C-5.05796135 15.58812973 -5.07858635 14.59426254 -5.09983635 13.57027817 C-5.1049926 12.60734848 -5.11014885 11.64441879 -5.11546135 10.65230942 C-5.12480705 9.77590805 -5.13415276 8.89950668 -5.14378166 7.9965477 C-4.6394319 4.40322836 -3.92029148 1.00236372 0 0 Z " fill="#CBE5FE" transform="translate(130.7873363494873,14.54300308227539)"/>
<path d="M0 0 C-0.66022523 3.50489936 -2.08667414 6.09308478 -3.9375 9.125 C-4.46214844 9.99382812 -4.98679687 10.86265625 -5.52734375 11.7578125 C-8.21571932 15.8509891 -10.29652412 16.46793321 -14.9375 17.6875 C-36.6073822 24.20278396 -49.5049423 43.64575957 -59.72265625 62.64453125 C-60.48548656 64.09440526 -61.24448601 65.54630012 -62 67 C-62.39687012 67.76103027 -62.79374023 68.52206055 -63.20263672 69.30615234 C-74.09674027 90.4850502 -81.51939345 113.13346957 -88 136 C-91.57271804 132.42728196 -92.32376293 127.19256312 -93.75 122.4375 C-94.09160156 121.37724609 -94.43320313 120.31699219 -94.78515625 119.22460938 C-96.83423981 112.39011463 -97.39130459 107.73018907 -95 101 C-94.72140137 100.15074951 -94.44280273 99.30149902 -94.15576172 98.42651367 C-82.98114785 65.53128065 -65.52958175 24.77386003 -33.92578125 6.43359375 C-22.37757139 0.7751251 -12.61657512 -0.74605241 0 0 Z " fill="#FBEA41" transform="translate(193,192)"/>
<path d="M0 0 C19.74418859 2.77111419 35.21656475 18.00159864 48.83300781 31.36325073 C49.90077675 32.4108934 50.97190226 33.45512617 52.04638672 34.49588013 C53.56426921 35.97231501 55.06359271 37.46528473 56.55859375 38.96484375 C57.43829834 39.8374585 58.31800293 40.71007324 59.22436523 41.60913086 C61 44 61 44 60.87939453 46.13989258 C59.60811547 48.82891955 58.06638753 51.26224449 56.4375 53.75 C55.79683594 54.73484375 55.15617187 55.7196875 54.49609375 56.734375 C54.00238281 57.48203125 53.50867188 58.2296875 53 59 C49.5076937 57.53648361 47.62507368 55.68277906 45.1875 52.8125 C32.16069952 38.05591126 18.7064018 24.22413633 0 17 C-0.81082031 16.68289062 -1.62164062 16.36578125 -2.45703125 16.0390625 C-4.29625339 15.33687261 -6.14677818 14.66436254 -8 14 C-6.6744419 10.37723685 -5.05653045 7.36494652 -2.875 4.1875 C-2.33617187 3.39730469 -1.79734375 2.60710937 -1.2421875 1.79296875 C-0.83226562 1.20128906 -0.42234375 0.60960937 0 0 Z " fill="#F6DF19" transform="translate(209,195)"/>
<path d="M0 0 C2.7481803 2.50371027 4.6308913 5.31056785 6.625 8.4375 C7.23601562 9.38496094 7.84703125 10.33242188 8.4765625 11.30859375 C9.84433508 13.72499198 10.56718942 15.3021348 11 18 C10.11165144 20.87464766 9.14613944 23.57617208 8.02734375 26.359375 C7.70721817 27.18141418 7.38709259 28.00345337 7.05726624 28.85040283 C6.02767205 31.48778665 4.98304378 34.11890366 3.9375 36.75 C2.9239523 39.33051231 1.91350777 41.91222509 0.90322876 44.49401855 C0.2372468 46.19267156 -0.43122246 47.89035153 -1.10220337 49.58703613 C-2.69362941 53.61771534 -4.25311949 57.65431331 -5.72998047 61.72851562 C-5.99797958 62.46450989 -6.2659787 63.20050415 -6.542099 63.95880127 C-7.03771777 65.32916502 -7.52645558 66.70204556 -8.0068512 68.07781982 C-10.16293337 74.03165608 -10.16293337 74.03165608 -13 76 C-19.79245283 76.75471698 -19.79245283 76.75471698 -23.5 74.4375 C-25.56175587 71.08714671 -25.25305736 68.90977373 -25 65 C-24.27108381 62.38494986 -23.49466377 59.95328713 -22.54296875 57.42578125 C-22.28395279 56.71160034 -22.02493683 55.99741943 -21.7580719 55.26159668 C-20.91258699 52.94088012 -20.05064715 50.62669926 -19.1875 48.3125 C-18.59804533 46.70879328 -18.00918359 45.10486852 -17.42089844 43.50073242 C-2.22105713 2.22105713 -2.22105713 2.22105713 0 0 Z " fill="#9DE02C" transform="translate(106,371)"/>
<path d="M0 0 C1.19496094 -0.00386719 2.38992187 -0.00773437 3.62109375 -0.01171875 C4.87019531 -0.00011719 6.11929688 0.01148438 7.40625 0.0234375 C8.65535156 0.01183594 9.90445313 0.00023437 11.19140625 -0.01171875 C12.98384766 -0.00591797 12.98384766 -0.00591797 14.8125 0 C15.90884766 0.00338379 17.00519531 0.00676758 18.13476562 0.01025391 C20.90625 0.3984375 20.90625 0.3984375 22.76220703 1.54248047 C24.41743059 4.2277151 24.29499859 6.35298017 24.3046875 9.4921875 C24.31048828 11.28462891 24.31048828 11.28462891 24.31640625 13.11328125 C24.30480469 14.36238281 24.29320312 15.61148438 24.28125 16.8984375 C24.29285156 18.14753906 24.30445313 19.39664063 24.31640625 20.68359375 C24.31253906 21.87855469 24.30867188 23.07351562 24.3046875 24.3046875 C24.30130371 25.40103516 24.29791992 26.49738281 24.29443359 27.62695312 C23.90625 30.3984375 23.90625 30.3984375 22.76220703 32.25439453 C20.0769724 33.90961809 17.95170733 33.78718609 14.8125 33.796875 C13.61753906 33.80074219 12.42257813 33.80460937 11.19140625 33.80859375 C9.94230469 33.79699219 8.69320312 33.78539062 7.40625 33.7734375 C6.15714844 33.78503906 4.90804687 33.79664063 3.62109375 33.80859375 C1.82865234 33.80279297 1.82865234 33.80279297 0 33.796875 C-1.09634766 33.79349121 -2.19269531 33.79010742 -3.32226562 33.78662109 C-6.09375 33.3984375 -6.09375 33.3984375 -7.94970703 32.25439453 C-9.60493059 29.5691599 -9.48249859 27.44389483 -9.4921875 24.3046875 C-9.49605469 23.10972656 -9.49992187 21.91476563 -9.50390625 20.68359375 C-9.49230469 19.43449219 -9.48070313 18.18539062 -9.46875 16.8984375 C-9.48035156 15.64933594 -9.49195312 14.40023437 -9.50390625 13.11328125 C-9.50003906 11.91832031 -9.49617188 10.72335938 -9.4921875 9.4921875 C-9.48880371 8.39583984 -9.48541992 7.29949219 -9.48193359 6.16992188 C-9.09375 3.3984375 -9.09375 3.3984375 -7.94970703 1.54248047 C-5.2644724 -0.11274309 -3.13920733 0.00968891 0 0 Z " fill="#F7CE19" transform="translate(90.09375,61.6015625)"/>
<path d="M0 0 C1.19496094 -0.00386719 2.38992187 -0.00773438 3.62109375 -0.01171875 C4.87019531 -0.00011719 6.11929688 0.01148438 7.40625 0.0234375 C8.65535156 0.01183594 9.90445313 0.00023437 11.19140625 -0.01171875 C12.98384766 -0.00591797 12.98384766 -0.00591797 14.8125 0 C15.90884766 0.00338379 17.00519531 0.00676758 18.13476562 0.01025391 C20.90625 0.3984375 20.90625 0.3984375 22.76000977 1.55834961 C25.37413481 5.75486941 24.37208109 11.55313459 24.34375 16.3359375 C24.3737207 18.12547852 24.3737207 18.12547852 24.40429688 19.95117188 C24.40365234 21.09779297 24.40300781 22.24441406 24.40234375 23.42578125 C24.40512329 24.99960571 24.40512329 24.99960571 24.40795898 26.60522461 C23.77020387 30.15586024 22.82953443 31.31541711 19.90625 33.3984375 C17.22070312 33.90014648 17.22070312 33.90014648 14.1875 33.89453125 C12.54201172 33.89549805 12.54201172 33.89549805 10.86328125 33.89648438 C9.72246094 33.87650391 8.58164063 33.85652344 7.40625 33.8359375 C5.69501953 33.84657227 5.69501953 33.84657227 3.94921875 33.85742188 C-4.28991796 33.79449075 -4.28991796 33.79449075 -7.42016602 32.25219727 C-9.79787716 29.61850497 -9.59577909 27.81634561 -9.58984375 24.3046875 C-9.59048828 23.10972656 -9.59113281 21.91476563 -9.59179688 20.68359375 C-9.57181641 19.43449219 -9.55183594 18.18539062 -9.53125 16.8984375 C-9.53833984 15.64933594 -9.54542969 14.40023438 -9.55273438 13.11328125 C-9.4891038 4.03858225 -9.4891038 4.03858225 -7.94750977 1.54248047 C-5.26381456 -0.11375498 -3.13827173 0.00968602 0 0 Z " fill="#F73C55" transform="translate(90.09375,14.6015625)"/>
<path d="M0 0 C1.14082031 -0.01998047 2.28164062 -0.03996094 3.45703125 -0.06054688 C5.10251953 -0.05958008 5.10251953 -0.05958008 6.78125 -0.05859375 C8.28268555 -0.06137329 8.28268555 -0.06137329 9.81445312 -0.06420898 C13.29733176 0.58645607 14.44959384 1.56782871 16.5 4.4375 C17.00170898 7.23071289 17.00170898 7.23071289 16.99609375 10.41015625 C16.99673828 11.55677734 16.99738281 12.70339844 16.99804688 13.88476562 C16.97806641 15.07779297 16.95808594 16.27082031 16.9375 17.5 C16.94458984 18.69689453 16.95167969 19.89378906 16.95898438 21.12695312 C16.89551617 29.80256807 16.89551617 29.80256807 15.35375977 32.27758789 C12.67168724 33.95578183 10.55408065 33.82622197 7.40625 33.8359375 C6.21128906 33.83980469 5.01632813 33.84367187 3.78515625 33.84765625 C2.53605469 33.83605469 1.28695312 33.82445312 0 33.8125 C-1.24910156 33.82410156 -2.49820313 33.83570313 -3.78515625 33.84765625 C-5.57759766 33.84185547 -5.57759766 33.84185547 -7.40625 33.8359375 C-8.50259766 33.83255371 -9.59894531 33.82916992 -10.72851562 33.82568359 C-13.5 33.4375 -13.5 33.4375 -15.35375977 32.29345703 C-18.02894511 27.96187897 -16.96545572 21.8627899 -16.9375 16.9375 C-16.9674707 15.06384766 -16.9674707 15.06384766 -16.99804688 13.15234375 C-16.99740234 11.95738281 -16.99675781 10.76242188 -16.99609375 9.53125 C-16.99794678 8.43490234 -16.9997998 7.33855469 -17.00170898 6.20898438 C-16.5 3.4375 -16.5 3.4375 -14.82641602 1.58374023 C-10.21073143 -0.69043745 -5.04396255 -0.03134666 0 0 Z " fill="#8ECB27" transform="translate(97.5,108.5625)"/>
<path d="M0 0 C2 1 2 1 2.89453125 3.5546875 C3.19746094 4.65039062 3.50039062 5.74609375 3.8125 6.875 C5.12777972 11.45097318 6.6640547 15.4764625 8.875 19.6875 C11.17430682 24.51958173 11.20244485 27.74331447 10.00390625 32.90625 C8.75881278 35.50302081 7.45403025 36.52942007 5 38 C2.0625 38.5 2.0625 38.5 -1 38 C-3.875 35.9375 -3.875 35.9375 -6 33 C-6.78623979 26.01972483 -4.63312978 19.30467769 -3 12.5625 C-2.71382813 11.35400391 -2.42765625 10.14550781 -2.1328125 8.90039062 C-1.42881435 5.93186508 -0.71768918 2.96523973 0 0 Z " fill="#F9B723" transform="translate(87,328)"/>
<path d="M0 0 C2.7481803 2.50371027 4.6308913 5.31056785 6.625 8.4375 C7.23601562 9.38496094 7.84703125 10.33242188 8.4765625 11.30859375 C10.83050235 15.46722082 10.83050235 15.46722082 11 18 C10.00390625 21.015625 10.00390625 21.015625 8.5625 24.25 C7.85287109 25.86648438 7.85287109 25.86648438 7.12890625 27.515625 C6.75636719 28.33546875 6.38382813 29.1553125 6 30 C2.06532131 28.47231437 0.1842989 26.09123729 -2.3125 22.75 C-3.03050781 21.81671875 -3.74851562 20.8834375 -4.48828125 19.921875 C-6.36309538 16.29820325 -6.1447782 14.86613691 -5 11 C-4.20964896 9.0150528 -3.35514347 7.05440421 -2.4375 5.125 C-1.75494141 3.67480469 -1.75494141 3.67480469 -1.05859375 2.1953125 C-0.70925781 1.47085937 -0.35992187 0.74640625 0 0 Z " fill="#7CB529" transform="translate(106,371)"/>
<path d="M0 0 C5.20540698 0.96396425 9.59913433 1.87680501 14 5 C12.35821735 9.77609498 9.73453298 13.79382904 7 18 C1.54520815 17.43179252 -2.91059256 16.05362055 -8 14 C-6.6744419 10.37723685 -5.05653045 7.36494652 -2.875 4.1875 C-2.33617187 3.39730469 -1.79734375 2.60710937 -1.2421875 1.79296875 C-0.83226562 1.20128906 -0.42234375 0.60960937 0 0 Z " fill="#F5C019" transform="translate(209,195)"/>
<path d="M0 0 C2.27025013 1.04816932 3.24309477 2.09747735 4.69921875 4.12109375 C5.13878906 4.70375 5.57835937 5.28640625 6.03125 5.88671875 C7.23560117 8.68037351 6.95580792 10.03933277 5.88671875 12.87109375 C3.671875 14.890625 3.671875 14.890625 0.94921875 16.68359375 C0.05332031 17.28816406 -0.84257812 17.89273437 -1.765625 18.515625 C-4.11328125 19.87109375 -4.11328125 19.87109375 -6.11328125 19.87109375 C-7.83984375 17.68359375 -7.83984375 17.68359375 -9.73828125 14.87109375 C-10.36992187 13.94296875 -11.0015625 13.01484375 -11.65234375 12.05859375 C-12.13445312 11.33671875 -12.6165625 10.61484375 -13.11328125 9.87109375 C-11.66791338 6.30429885 -9.91587179 4.68578476 -6.73828125 2.55859375 C-5.96742188 2.02621094 -5.1965625 1.49382812 -4.40234375 0.9453125 C-2.11328125 -0.12890625 -2.11328125 -0.12890625 0 0 Z " fill="#DA0E7E" transform="translate(427.11328125,246.12890625)"/>
<path d="M0 0 C2.475 0.495 2.475 0.495 5 1 C8.24750878 5.87126317 7.32785434 11.27590027 7.3125 17 C7.32861328 18.20140625 7.34472656 19.4028125 7.36132812 20.640625 C7.36197266 21.79046875 7.36261719 22.9403125 7.36328125 24.125 C7.36775269 25.70667969 7.36775269 25.70667969 7.37231445 27.3203125 C7 30 7 30 5.72729492 31.8671875 C4 33 4 33 0 33 C0 22.11 0 11.22 0 0 Z " fill="#5AA63B" transform="translate(107,109)"/>
<path d="M0 0 C0.99 0 1.98 0 3 0 C3 10.89 3 21.78 3 33 C2.01 33 1.02 33 0 33 C0 22.11 0 11.22 0 0 Z " fill="#73B12C" transform="translate(104,109)"/>
<path d="M0 0 C3.51165787 3.51165787 3.38329721 4.16367384 3.3984375 8.91015625 C3.40230469 10.06451172 3.40617187 11.21886719 3.41015625 12.40820312 C3.39855469 13.61412109 3.38695313 14.82003906 3.375 16.0625 C3.38660156 17.27228516 3.39820312 18.48207031 3.41015625 19.72851562 C3.40628906 20.88158203 3.40242188 22.03464844 3.3984375 23.22265625 C3.39505371 24.28234619 3.39166992 25.34203613 3.38818359 26.43383789 C3.26008301 27.28067139 3.13198242 28.12750488 3 29 C2.01 29.66 1.02 30.32 0 31 C0 20.77 0 10.54 0 0 Z " fill="#439B49" transform="translate(111,110)"/>
</svg>
